HIERARCHY
ROOT Root
{
	OFFSET 0.000000 1.235290 9.556880 
	CHANNELS 6 Xposition Yposition Zposition Xrotation Yrotation Zrotation
	JOINT Spine1
	{
		OFFSET 0.000000 -0.335706 0.417760 
		CHANNELS 3 Xrotation Yrotation Zrotation
		JOINT Spine2
		{
			OFFSET 0.000000 0.201896 1.005360 
			CHANNELS 3 Xrotation Yrotation Zrotation
			JOINT Spine3
			{
				OFFSET 0.000000 0.371400 1.223500 
				CHANNELS 3 Xrotation Yrotation Zrotation
				JOINT Neck
				{
					OFFSET 0.000000 -0.271320 1.966900 
					CHANNELS 3 Xrotation Yrotation Zrotation
					JOINT Head
					{
						OFFSET 0.000000 -0.007180 1.071600 
						CHANNELS 3 Xrotation Yrotation Zrotation
						JOINT __Jaw
						{
							OFFSET 0.000000 0.111500 1.311400 
							CHANNELS 3 Xrotation Yrotation Zrotation
							JOINT Jaw
							{
								OFFSET 0.000000 -0.590716 -1.325200 
								CHANNELS 3 Xrotation Yrotation Zrotation
								JOINT __Tongue1
								{
									OFFSET 0.000000 -0.762537 -0.667300 
									CHANNELS 3 Xrotation Yrotation Zrotation
									End Site
									{
										OFFSET 0.000000 0.712770 0.336600 
									}
								}
								JOINT Tongue1
								{
									OFFSET 0.000000 -0.762537 -0.667300 
									CHANNELS 3 Xrotation Yrotation Zrotation
									JOINT Tongue2
									{
										OFFSET 0.000000 0.440548 0.404301 
										CHANNELS 3 Xrotation Yrotation Zrotation
										JOINT Tongue3
										{
											OFFSET 0.000000 -0.222683 -0.007800 
											CHANNELS 3 Xrotation Yrotation Zrotation
											End Site
											{
												OFFSET 0.000000 -0.137613 -0.039500 
											}
										}
									}
								}
							}
						}
						JOINT __Eye_L
						{
							OFFSET 0.000000 0.111500 1.311400 
							CHANNELS 3 Xrotation Yrotation Zrotation
							JOINT Eye_L
							{
								OFFSET 0.286939 -1.150516 -0.965200 
								CHANNELS 3 Xrotation Yrotation Zrotation
								End Site
								{
									OFFSET 0.007035 -0.392999 0.015301 
								}
							}
						}
						JOINT __Eye_R
						{
							OFFSET 0.000000 0.111500 1.311400 
							CHANNELS 3 Xrotation Yrotation Zrotation
							JOINT Eye_R
							{
								OFFSET -0.286939 -1.150516 -0.965200 
								CHANNELS 3 Xrotation Yrotation Zrotation
								End Site
								{
									OFFSET -0.007035 -0.392999 0.015301 
								}
							}
						}
					}
				}
				JOINT __Clavicle_L
				{
					OFFSET 0.000000 -0.271320 1.966900 
					CHANNELS 3 Xrotation Yrotation Zrotation
					JOINT Clavicle_L
					{
						OFFSET 0.252495 -0.592680 -0.680099 
						CHANNELS 3 Xrotation Yrotation Zrotation
						JOINT UpArm_L
						{
							OFFSET 1.471835 0.544940 -0.006500 
							CHANNELS 3 Xrotation Yrotation Zrotation
							JOINT LoArm_L
							{
								OFFSET 1.972350 0.157380 -0.189700 
								CHANNELS 3 Xrotation Yrotation Zrotation
								JOINT Hand_L
								{
									OFFSET 2.379560 -0.226010 -0.082600 
									CHANNELS 3 Xrotation Yrotation Zrotation
									JOINT __Thumb1_L
									{
										OFFSET 1.011520 -0.180094 0.059500 
										CHANNELS 3 Xrotation Yrotation Zrotation
										JOINT Thumb1_L
										{
											OFFSET -0.742610 -0.068096 -0.139400 
											CHANNELS 3 Xrotation Yrotation Zrotation
											JOINT Thumb2_L
											{
												OFFSET 0.294840 -0.171231 -0.196401 
												CHANNELS 3 Xrotation Yrotation Zrotation
												JOINT Thumb3_L
												{
													OFFSET 0.301650 -0.145173 -0.003699 
													CHANNELS 3 Xrotation Yrotation Zrotation
													End Site
													{
														OFFSET 0.352750 -0.040702 -0.031401 
													}
												}
											}
										}
									}
									JOINT __Index1_L
									{
										OFFSET 1.011520 -0.180094 0.059500 
										CHANNELS 3 Xrotation Yrotation Zrotation
										JOINT Index1_L
										{
											OFFSET -0.020550 -0.189660 -0.032800 
											CHANNELS 3 Xrotation Yrotation Zrotation
											JOINT Index2_L
											{
												OFFSET 0.260730 -0.033503 -0.029100 
												CHANNELS 3 Xrotation Yrotation Zrotation
												JOINT Index3_L
												{
													OFFSET 0.208380 -0.017383 -0.010500 
													CHANNELS 3 Xrotation Yrotation Zrotation
													End Site
													{
														OFFSET 0.264640 -0.009090 -0.002500 
													}
												}
											}
										}
									}
									JOINT Middle1_L
									{
										OFFSET 1.011520 -0.180094 0.059500 
										CHANNELS 3 Xrotation Yrotation Zrotation
										JOINT Middle2_L
										{
											OFFSET 0.316330 0.002049 -0.007900 
											CHANNELS 3 Xrotation Yrotation Zrotation
											JOINT Middle3_L
											{
												OFFSET 0.267600 -0.007631 -0.029200 
												CHANNELS 3 Xrotation Yrotation Zrotation
												End Site
												{
													OFFSET 0.242780 0.003143 -0.019500 
												}
											}
										}
									}
									JOINT __Ring1_L
									{
										OFFSET 1.011520 -0.180094 0.059500 
										CHANNELS 3 Xrotation Yrotation Zrotation
										JOINT Ring1_L
										{
											OFFSET -0.013760 0.218464 -0.042000 
											CHANNELS 3 Xrotation Yrotation Zrotation
											JOINT Ring2_L
											{
												OFFSET 0.289610 -0.005100 -0.009501 
												CHANNELS 3 Xrotation Yrotation Zrotation
												JOINT Ring3_L
												{
													OFFSET 0.226630 0.000370 -0.008200 
													CHANNELS 3 Xrotation Yrotation Zrotation
													End Site
													{
														OFFSET 0.238650 -0.005430 -0.004400 
													}
												}
											}
										}
									}
									JOINT __Pinky1_L
									{
										OFFSET 1.011520 -0.180094 0.059500 
										CHANNELS 3 Xrotation Yrotation Zrotation
										JOINT Pinky1_L
										{
											OFFSET -0.011150 0.413174 -0.115499 
											CHANNELS 3 Xrotation Yrotation Zrotation
											JOINT Pinky2_L
											{
												OFFSET 0.234040 0.008980 -0.037001 
												CHANNELS 3 Xrotation Yrotation Zrotation
												JOINT Pinky3_L
												{
													OFFSET 0.128020 -0.000440 -0.009500 
													CHANNELS 3 Xrotation Yrotation Zrotation
													End Site
													{
														OFFSET 0.152970 -0.016250 0.002399 
													}
												}
											}
										}
									}
								}
							}
						}
					}
				}
				JOINT __Clavicle_R
				{
					OFFSET 0.000000 -0.271320 1.966900 
					CHANNELS 3 Xrotation Yrotation Zrotation
					JOINT Clavicle_R
					{
						OFFSET -0.252495 -0.592680 -0.680099 
						CHANNELS 3 Xrotation Yrotation Zrotation
						JOINT UpArm_R
						{
							OFFSET -1.471835 0.544940 -0.006500 
							CHANNELS 3 Xrotation Yrotation Zrotation
							JOINT LoArm_R
							{
								OFFSET -1.972350 0.157380 -0.189700 
								CHANNELS 3 Xrotation Yrotation Zrotation
								JOINT Hand_R
								{
									OFFSET -2.379560 -0.226010 -0.082600 
									CHANNELS 3 Xrotation Yrotation Zrotation
									JOINT __Thumb1_R
									{
										OFFSET -1.011520 -0.180094 0.059500 
										CHANNELS 3 Xrotation Yrotation Zrotation
										JOINT Thumb1_R
										{
											OFFSET 0.742610 -0.068096 -0.139400 
											CHANNELS 3 Xrotation Yrotation Zrotation
											JOINT Thumb2_R
											{
												OFFSET -0.294840 -0.171231 -0.196401 
												CHANNELS 3 Xrotation Yrotation Zrotation
												JOINT Thumb3_R
												{
													OFFSET -0.301650 -0.145173 -0.003699 
													CHANNELS 3 Xrotation Yrotation Zrotation
													End Site
													{
														OFFSET -0.352750 -0.040702 -0.031401 
													}
												}
											}
										}
									}
									JOINT __Index1_R
									{
										OFFSET -1.011520 -0.180094 0.059500 
										CHANNELS 3 Xrotation Yrotation Zrotation
										JOINT Index1_R
										{
											OFFSET 0.020550 -0.189660 -0.032800 
											CHANNELS 3 Xrotation Yrotation Zrotation
											JOINT Index2_R
											{
												OFFSET -0.260730 -0.033503 -0.029100 
												CHANNELS 3 Xrotation Yrotation Zrotation
												JOINT Index3_R
												{
													OFFSET -0.208380 -0.017383 -0.010500 
													CHANNELS 3 Xrotation Yrotation Zrotation
													End Site
													{
														OFFSET -0.264640 -0.009090 -0.002500 
													}
												}
											}
										}
									}
									JOINT Middle1_R
									{
										OFFSET -1.011520 -0.180094 0.059500 
										CHANNELS 3 Xrotation Yrotation Zrotation
										JOINT Middle2_R
										{
											OFFSET -0.316330 0.002049 -0.007900 
											CHANNELS 3 Xrotation Yrotation Zrotation
											JOINT Middle3_R
											{
												OFFSET -0.267600 -0.007631 -0.029200 
												CHANNELS 3 Xrotation Yrotation Zrotation
												End Site
												{
													OFFSET -0.242780 0.003143 -0.019500 
												}
											}
										}
									}
									JOINT __Ring1_R
									{
										OFFSET -1.011520 -0.180094 0.059500 
										CHANNELS 3 Xrotation Yrotation Zrotation
										JOINT Ring1_R
										{
											OFFSET 0.013760 0.218464 -0.042000 
											CHANNELS 3 Xrotation Yrotation Zrotation
											JOINT Ring2_R
											{
												OFFSET -0.289610 -0.005100 -0.009501 
												CHANNELS 3 Xrotation Yrotation Zrotation
												JOINT Ring3_R
												{
													OFFSET -0.226630 0.000370 -0.008200 
													CHANNELS 3 Xrotation Yrotation Zrotation
													End Site
													{
														OFFSET -0.238650 -0.005430 -0.004400 
													}
												}
											}
										}
									}
									JOINT __Pinky1_R
									{
										OFFSET -1.011520 -0.180094 0.059500 
										CHANNELS 3 Xrotation Yrotation Zrotation
										JOINT Pinky1_R
										{
											OFFSET 0.011150 0.413174 -0.115499 
											CHANNELS 3 Xrotation Yrotation Zrotation
											JOINT Pinky2_R
											{
												OFFSET -0.234040 0.008980 -0.037001 
												CHANNELS 3 Xrotation Yrotation Zrotation
												JOINT Pinky3_R
												{
													OFFSET -0.128020 -0.000440 -0.009500 
													CHANNELS 3 Xrotation Yrotation Zrotation
													End Site
													{
														OFFSET -0.152970 -0.016250 0.002399 
													}
												}
											}
										}
									}
								}
							}
						}
					}
				}
			}
		}
	}
	JOINT Hips
	{
		OFFSET 0.000000 -0.335706 0.417760 
		CHANNELS 3 Xrotation Yrotation Zrotation
		JOINT __UpLeg_L
		{
			OFFSET 0.000000 0.022872 -0.785740 
			CHANNELS 3 Xrotation Yrotation Zrotation
			JOINT UpLeg_L
			{
				OFFSET 1.020500 -0.049429 -0.185710 
				CHANNELS 3 Xrotation Yrotation Zrotation
				JOINT LoLeg_L
				{
					OFFSET -0.115340 0.263813 -4.255400 
					CHANNELS 3 Xrotation Yrotation Zrotation
					JOINT Foot_L
					{
						OFFSET -0.219506 0.080640 -3.913219 
						CHANNELS 3 Xrotation Yrotation Zrotation
						JOINT Toe_L
						{
							OFFSET 0.022090 -1.132070 -0.644009 
							CHANNELS 3 Xrotation Yrotation Zrotation
							End Site
							{
								OFFSET 0.031489 -0.669111 0.010260 
							}
						}
					}
				}
			}
		}
		JOINT __UpLeg_R
		{
			OFFSET 0.000000 0.022872 -0.785740 
			CHANNELS 3 Xrotation Yrotation Zrotation
			JOINT UpLeg_R
			{
				OFFSET -1.020500 -0.049429 -0.185710 
				CHANNELS 3 Xrotation Yrotation Zrotation
				JOINT LoLeg_R
				{
					OFFSET 0.115340 0.263813 -4.255400 
					CHANNELS 3 Xrotation Yrotation Zrotation
					JOINT Foot_R
					{
						OFFSET 0.219506 0.080640 -3.913219 
						CHANNELS 3 Xrotation Yrotation Zrotation
						JOINT Toe_R
						{
							OFFSET -0.022090 -1.132070 -0.644009 
							CHANNELS 3 Xrotation Yrotation Zrotation
							End Site
							{
								OFFSET -0.031489 -0.669111 0.010260 
							}
						}
					}
				}
			}
		}
	}
}
MOTION
Frames: 5
Frame Time: 0.041667
0.000000 0.000000 9.299632 -3.409175 -2.208985 -8.832420 6.060019 1.306445 2.096029 7.651739 -1.057677 5.122635 15.092989 -0.368088 1.785196 -38.534962 -7.216302 0.077355 35.435955 4.305480 0.651793 -0.000003 0.000001 -0.000001 -0.000002 -0.000001 0.000000 0.000001 0.000000 -0.000000 -0.000003 0.000000 -0.000000 0.000002 0.000000 0.000000 0.000001 0.000000 0.000000 -0.000003 0.000001 -0.000001 0.000001 0.000004 0.000000 -0.000003 0.000001 0.000000 -0.000001 0.000000 0.000000 -0.000002 -0.000003 -0.000002 -3.560237 11.799068 1.101868 8.601767 -3.771200 -60.418884 -9.011205 -17.184912 -25.058735 -9.497930 7.520529 -19.197262 -0.000001 0.000001 0.000001 0.000002 0.000003 -0.000001 0.000003 0.000002 -0.000002 0.000000 0.000000 0.000003 -0.000001 0.000002 0.000001 0.000001 0.000002 0.000000 0.000001 0.000000 -0.000001 0.000001 -0.000002 0.000000 -0.000000 -0.000000 0.000001 0.000001 0.000001 0.000000 -0.000000 0.000002 -0.000000 -0.000001 0.000001 0.000001 -0.000001 -0.000001 -0.000000 -0.000002 0.000001 0.000000 -0.000001 -0.000000 -0.000000 0.000000 0.000001 0.000001 -0.000001 0.000000 0.000000 0.000000 -0.000000 -0.000001 0.000001 0.000000 0.000000 -0.000002 0.000000 -0.000001 -5.082271 -11.229731 0.304996 7.002875 -0.973649 71.408562 -9.102863 17.322096 25.343882 -6.747204 -7.276752 19.328655 -0.000001 -0.000001 -0.000001 0.000001 -0.000003 -0.000001 0.000001 -0.000001 -0.000000 -0.000003 -0.000001 0.000001 0.000001 -0.000003 -0.000001 -0.000002 0.000003 -0.000001 0.000000 0.000001 -0.000001 0.000001 0.000000 -0.000000 0.000000 -0.000002 -0.000001 0.000000 -0.000002 0.000000 -0.000000 0.000000 -0.000001 -0.000000 -0.000002 -0.000002 0.000000 0.000001 -0.000001 0.000001 -0.000001 -0.000000 0.000000 0.000000 -0.000000 0.000000 -0.000001 -0.000002 -0.000001 0.000001 -0.000001 0.000000 0.000002 0.000000 -0.000001 0.000001 0.000001 0.000001 0.000000 0.000000 0.000001 0.000000 0.000000 -3.624369 -8.126994 3.446728 11.864157 -1.452595 -2.000601 -12.788224 20.402023 14.861162 0.000007 -0.000003 -0.000000 0.000001 -0.000001 -0.000000 12.558367 14.923714 -1.514434 13.524065 1.374731 2.049725 -16.625877 -19.303234 -15.900614 0.000006 0.000002 0.000001 
0.000000 0.000001 9.332547 -11.995064 6.972394 -2.143506 6.142735 3.362350 2.104025 7.156390 -0.761463 5.242340 14.461647 -1.152243 2.043088 -37.987206 -7.857492 0.122017 36.403149 5.435472 0.696548 -0.000001 -0.000000 0.000000 0.000004 0.000000 0.000000 -0.000001 0.000000 -0.000000 -0.000003 0.000000 -0.000000 0.000000 0.000000 0.000000 -0.000000 0.000000 0.000000 -0.000003 0.000000 -0.000001 0.000001 0.000003 0.000001 -0.000002 -0.000000 -0.000001 0.000000 -0.000002 -0.000001 -0.000003 -0.000003 -0.000002 -3.560236 11.799071 1.101871 9.189024 -4.066239 -59.394417 -9.014059 -17.193787 -25.116434 -9.427897 7.514979 -19.200594 0.000001 -0.000001 -0.000002 -0.000001 0.000001 0.000001 0.000003 0.000001 0.000001 0.000000 -0.000001 0.000002 -0.000001 0.000002 -0.000001 0.000002 -0.000000 0.000001 0.000002 -0.000001 0.000001 0.000001 0.000000 0.000001 0.000001 -0.000000 -0.000001 -0.000000 -0.000000 0.000000 0.000003 0.000001 -0.000000 0.000001 0.000000 -0.000002 0.000001 0.000001 0.000001 -0.000003 -0.000000 -0.000001 0.000000 0.000001 -0.000000 0.000000 -0.000000 -0.000001 0.000001 -0.000001 0.000000 0.000000 -0.000001 0.000000 0.000000 -0.000001 0.000000 -0.000003 0.000000 -0.000001 -5.082273 -11.229727 0.304998 8.048720 -0.294988 70.979004 -9.379978 17.672731 26.113207 -7.057524 -7.282874 19.318672 -0.000001 -0.000002 -0.000001 0.000001 -0.000005 0.000001 0.000001 -0.000005 -0.000000 0.000001 0.000002 0.000001 -0.000001 -0.000002 0.000001 0.000001 -0.000000 -0.000002 -0.000001 0.000000 -0.000000 -0.000000 0.000000 0.000002 -0.000001 -0.000002 0.000000 0.000000 -0.000001 0.000001 0.000001 0.000000 0.000000 0.000001 -0.000002 -0.000001 0.000001 0.000000 -0.000001 0.000002 0.000001 0.000002 0.000001 0.000000 -0.000002 0.000001 -0.000001 -0.000000 -0.000005 0.000001 0.000000 0.000002 -0.000003 -0.000001 -0.000001 0.000001 -0.000002 0.000001 0.000000 0.000000 0.000001 0.000001 0.000000 -0.599191 -5.968205 5.112788 8.585257 -1.512671 -1.891711 -13.288070 20.153185 15.851429 0.000003 -0.000002 0.000001 0.000001 0.000000 -0.000000 11.919302 17.330410 -1.021616 14.459366 1.331962 2.089530 -13.457747 -20.283173 -14.488322 -0.000001 0.000002 -0.000000 
0.000000 0.000000 9.345776 1.916329 -5.764393 0.595194 5.953357 4.070124 2.242818 6.852211 -0.337170 5.437505 14.234692 -1.062891 2.135154 -37.010052 -7.796248 0.295512 37.752777 5.766132 0.652401 -0.000002 0.000001 -0.000001 0.000001 0.000000 -0.000001 0.000001 0.000000 -0.000001 0.000000 0.000001 -0.000001 0.000001 0.000000 0.000000 -0.000000 0.000000 -0.000002 -0.000005 0.000000 -0.000001 0.000002 0.000003 0.000001 -0.000005 0.000003 0.000001 -0.000002 -0.000005 0.000002 -0.000004 -0.000001 0.000001 -3.560237 11.799072 1.101871 8.866524 -3.932748 -59.028591 -9.002239 -17.209549 -25.092075 -9.357846 7.509410 -19.203892 0.000002 -0.000000 0.000000 0.000001 0.000002 0.000000 0.000001 0.000002 0.000001 -0.000002 -0.000002 -0.000002 0.000001 -0.000000 0.000000 0.000001 0.000002 0.000001 0.000001 0.000000 -0.000000 0.000000 -0.000001 0.000000 0.000002 0.000001 0.000000 0.000002 -0.000001 0.000000 0.000001 0.000000 0.000000 0.000002 0.000000 0.000000 0.000000 0.000000 -0.000000 -0.000001 -0.000001 0.000000 0.000000 -0.000000 -0.000000 0.000001 -0.000001 0.000002 -0.000002 0.000001 0.000000 0.000001 0.000002 0.000000 0.000000 0.000000 -0.000001 -0.000004 0.000002 0.000002 -5.082273 -11.229728 0.304997 8.277977 -1.735033 70.725922 -9.403536 17.711901 26.194300 -7.367838 -7.288987 19.308716 -0.000001 0.000000 -0.000002 0.000002 -0.000002 0.000000 0.000003 -0.000003 0.000002 -0.000003 -0.000003 -0.000001 0.000003 0.000000 -0.000003 0.000003 0.000000 -0.000002 0.000000 -0.000001 0.000001 -0.000000 -0.000002 0.000004 0.000001 -0.000001 -0.000003 0.000000 0.000003 -0.000006 -0.000002 -0.000003 0.000000 0.000000 0.000001 -0.000002 -0.000003 -0.000000 -0.000001 -0.000001 0.000002 -0.000001 0.000001 -0.000001 0.000001 0.000003 -0.000000 -0.000003 -0.000004 -0.000001 -0.000001 0.000000 -0.000002 0.000001 0.000001 -0.000001 0.000002 0.000003 -0.000001 0.000000 0.000001 0.000001 0.000000 1.640654 -5.056006 6.609657 5.883360 -1.556426 -1.810778 -13.521419 19.938404 16.047861 0.000001 -0.000002 -0.000001 0.000001 0.000000 -0.000000 11.491429 17.919033 -0.145821 14.437076 1.321467 2.084536 -11.498427 -20.732481 -14.225175 0.000002 0.000004 0.000001 
0.000000 -0.002089 9.350561 -3.032715 0.028862 -11.035683 5.978495 5.084665 2.642696 6.931849 0.268461 6.010225 14.283351 -0.971494 2.421872 -36.386734 -7.786242 0.327055 38.866692 6.214658 0.416316 0.000002 -0.000000 0.000000 -0.000002 0.000000 0.000000 0.000001 0.000000 -0.000000 0.000000 0.000000 -0.000000 0.000002 0.000000 -0.000001 0.000002 0.000000 0.000000 0.000002 -0.000001 0.000000 0.000002 -0.000002 -0.000002 0.000001 -0.000001 0.000000 0.000002 -0.000001 -0.000000 -0.000006 0.000000 -0.000001 -3.560236 11.799069 1.101869 8.878205 -3.693645 -58.748177 -9.053896 -17.292591 -25.265633 -9.287768 7.503815 -19.207153 0.000000 0.000001 0.000000 0.000003 0.000002 0.000001 0.000003 0.000001 -0.000002 0.000001 -0.000003 0.000001 -0.000001 0.000001 -0.000002 0.000002 -0.000001 0.000001 -0.000001 0.000000 -0.000001 0.000001 0.000000 0.000001 -0.000001 0.000001 0.000001 -0.000002 0.000001 0.000000 0.000001 0.000000 -0.000001 0.000000 0.000002 -0.000001 0.000001 0.000000 -0.000000 -0.000001 0.000000 0.000001 -0.000001 0.000001 -0.000000 0.000002 0.000001 0.000001 0.000000 -0.000001 0.000001 0.000000 0.000000 0.000000 -0.000001 0.000000 -0.000001 -0.000006 0.000000 0.000001 -5.082270 -11.229733 0.304997 8.697315 -1.642762 70.061134 -9.427103 17.751064 26.275379 -7.923844 -7.382555 19.291634 0.000000 0.000000 -0.000002 0.000002 -0.000004 0.000002 0.000003 -0.000007 0.000003 0.000001 0.000001 -0.000001 0.000001 -0.000002 -0.000001 0.000003 0.000000 -0.000000 0.000002 0.000001 -0.000003 0.000002 -0.000000 0.000000 0.000001 -0.000002 -0.000002 -0.000001 0.000001 -0.000000 -0.000002 -0.000001 -0.000000 0.000000 -0.000001 -0.000001 -0.000001 -0.000000 -0.000001 0.000001 -0.000001 -0.000000 0.000000 0.000001 0.000001 0.000001 0.000000 -0.000001 -0.000004 0.000001 -0.000002 0.000002 -0.000001 0.000002 0.000001 -0.000001 0.000001 0.000005 -0.000001 0.000000 0.000001 0.000000 0.000000 3.485384 -3.355319 7.688717 4.263141 -1.560750 -1.777256 -14.574495 19.570620 16.287237 0.000003 -0.000003 -0.000000 -0.000000 0.000000 -0.000000 10.772233 19.005680 -0.417676 15.117062 1.289395 2.114338 -9.746674 -21.205614 -13.989461 0.000005 -0.000001 -0.000000 
0.000000 -0.004178 9.355347 -3.171572 0.751214 -10.799454 5.950963 4.688495 2.722554 6.996579 0.123976 6.097067 14.329958 -0.894776 2.442111 -36.484348 -7.776332 0.309190 38.147400 5.994134 0.567130 0.000000 -0.000000 0.000000 0.000000 0.000000 0.000000 0.000000 0.000000 -0.000000 0.000000 0.000000 -0.000000 0.000000 0.000000 0.000000 0.000002 0.000000 0.000000 0.000001 0.000000 -0.000001 0.000003 0.000004 0.000001 0.000001 -0.000000 0.000001 0.000002 -0.000001 0.000002 -0.000002 -0.000002 0.000000 -3.560238 11.799067 1.101869 9.570667 -4.573667 -58.025333 -9.293521 -17.608164 -25.947250 -9.536442 7.585712 -19.202536 0.000001 -0.000001 -0.000000 0.000004 0.000004 -0.000001 0.000004 0.000003 -0.000002 -0.000001 -0.000002 -0.000001 0.000002 -0.000001 -0.000001 -0.000001 -0.000001 -0.000001 0.000001 -0.000001 0.000002 0.000000 0.000000 0.000000 0.000002 -0.000000 -0.000000 0.000002 -0.000002 -0.000001 -0.000001 -0.000000 0.000000 0.000002 -0.000001 -0.000000 0.000000 0.000002 0.000001 0.000001 -0.000000 0.000000 0.000001 -0.000001 -0.000000 0.000000 -0.000001 -0.000000 0.000003 0.000000 0.000000 0.000000 0.000000 0.000000 -0.000002 0.000001 -0.000002 -0.000002 0.000003 -0.000001 -5.082272 -11.229730 0.304994 8.578182 -1.468553 69.842575 -9.450682 17.790228 26.356466 -7.802697 -7.371227 19.278322 -0.000001 -0.000001 0.000002 0.000004 -0.000003 0.000001 0.000000 -0.000003 0.000003 -0.000001 0.000001 -0.000001 -0.000000 -0.000002 0.000002 0.000002 0.000002 -0.000002 -0.000002 0.000000 0.000001 -0.000002 -0.000001 0.000000 0.000001 -0.000001 0.000002 0.000001 -0.000001 0.000002 -0.000001 0.000000 -0.000002 -0.000001 -0.000002 0.000002 0.000001 0.000001 -0.000001 0.000000 -0.000001 0.000001 0.000000 0.000000 -0.000001 0.000000 -0.000002 0.000002 -0.000007 0.000000 0.000000 0.000006 0.000001 0.000002 0.000001 -0.000001 0.000001 0.000002 -0.000001 0.000001 0.000000 0.000000 0.000000 3.853455 -3.636303 7.833301 4.218274 -1.568840 -1.779154 -15.711999 19.421625 16.202965 0.000004 -0.000001 -0.000000 0.000001 0.000000 -0.000001 10.493933 17.770445 -0.947926 14.543465 1.296579 2.082982 -12.905210 -20.179991 -15.912421 0.000008 0.000001 -0.000001 
